<?xml version="1.0" encoding="utf-8"?>
<!-- Generator: Adobe Illustrator 24.1.0, SVG Export Plug-In . SVG Version: 6.00 Build 0)  -->
<svg version="1.1" id="Layer_1" xmlns="http://www.w3.org/2000/svg" xmlns:xlink="http://www.w3.org/1999/xlink" x="0px" y="0px"
	 viewBox="0 0 1000 500" style="enable-background:new 0 0 1000 500;" xml:space="preserve">
<style type="text/css">
	.st0{fill:#FF3333;stroke:#1A1A1A;stroke-width:5;stroke-linejoin:round;stroke-miterlimit:10;}
</style>
<path class="st0" d="M7,246c12.8-0.3,17.2-3.4,17.2-12.8v-10.9v-74.9c0-9.4-3.1-13.3-10.1-13.3c-1.3,0-2.3,0.3-3.9,0.5l-1-3.4
	l69.2-14.8v21.3c7.5-7,10.9-9.6,16.7-12.8c8.1-4.4,15.4-6.5,24.5-6.5c11.7,0,21.3,3.4,28.1,10.7c7,6.8,8.8,12.5,8.8,28.9l-0.5,75.2
	c0,9.1,4.7,12.5,16.9,12.8v3.4H90.3V246c3.4-0.3,4.9-0.8,7-2.1c3.4-1.8,3.9-3.6,3.9-10.7l0.3-75.5c0-8.1-0.3-9.4-2.1-12.2
	c-1.6-2.3-4.2-3.6-7.3-3.6c-4.4,0-9.1,2.6-14.1,7.5v83.8c0,8.8,3.1,12,11.5,12.8v3.4H7V246z"/>
<path class="st0" d="M230.1,118.5c44,0,70.3,24.5,70.3,65.8c0,41.9-27.6,68.4-71.8,68.4c-44.5,0-72.3-26.3-72.3-67.1
	C156.2,144.2,184.8,118.5,230.1,118.5z M212.9,184.8c0.5,40.9,3.6,51,15.4,51c6.2,0,10.1-4.2,12.2-12.2c2.1-9.9,3.4-22.6,3.4-37.2
	c0-12-1-24.5-2.6-35.1c-1.6-10.7-6-16.9-12.5-16.9c-10.9,0-15.9,14.1-15.9,45.5V184.8z"/>
<path class="st0" d="M432,148.1c0-12.2-3.4-16.4-12.5-16.4c-7.8,0-13,3.6-13,8.8c0,1.3,0.3,2.6,1.3,4.7c1.8,2.9,1.8,2.9,2.6,4.4
	c0.8,1.8,1,3.6,1,6c0,10.9-10.1,19.5-22.6,19.5c-13,0-22.6-8.8-22.6-20.8c0-21.1,26.3-35.9,64-35.9c17.7,0,29.9,2.3,40.3,8.1
	c12.2,6.2,16.1,14.3,16.1,32.3l0.3,58.6c0,7.3,0.3,8.1,1.6,10.4c1,2.1,3.9,3.6,7,3.6c4.7,0,8.3-2.1,12-6.8l2.3,2.3
	c-2.9,4.9-5.7,8.6-8.3,11.4c-7,8.1-19.5,13-33.8,13c-15.6,0-25.8-4.4-35.1-14.8c-10.7,10.1-21.9,15.1-35.4,15.1
	c-21.9,0-37.7-13.3-37.7-31.5c0-12.8,7-24.2,20-32.5c3.6-2.1,7.3-3.9,10.9-5.5c6.8-2.6,17.4-6.2,23.4-7.8l10.7-2.6l7.5-2.3V148.1z
	 M432.5,182c-8.8,5.7-12,8.1-15.4,12.2c-3.9,5.5-6,10.9-6,18c0,10.4,4.4,16.9,10.9,16.9c4.2,0,6.8-1.3,10.4-4.9V182z"/>
<path class="st0" d="M493.8,246c12.8-0.3,17.2-3.4,17.2-12.8v-10.9v-74.9c0-9.4-3.1-13.3-10.1-13.3c-1.3,0-2.3,0.3-3.9,0.5l-1-3.4
	l69.2-14.8v21.3c7.5-7,10.9-9.6,16.7-12.8c8.1-4.4,15.4-6.5,24.5-6.5c11.7,0,21.3,3.4,28.1,10.7c7,6.8,8.8,12.5,8.8,28.9l-0.5,75.2
	c0,9.1,4.7,12.5,16.9,12.8v3.4h-82.5V246c3.4-0.3,4.9-0.8,7-2.1c3.4-1.8,3.9-3.6,3.9-10.7l0.3-75.5c0-8.1-0.3-9.4-2.1-12.2
	c-1.6-2.3-4.2-3.6-7.3-3.6c-4.4,0-9.1,2.6-14.1,7.5v83.8c0,8.8,3.1,12,11.5,12.8v3.4h-82.5V246z"/>
<path class="st0" d="M79.1,266.5h79.6v3.4h-1.3c-3.6,0-4.9,1.3-4.9,4.9c0,1.8,0.3,3.4,1.3,6.5l19.8,53.1l9.9-26.5l-9.9-26.5
	c-3.1-7.8-7.3-11.5-13-11.5h-1.3v-3.4h83.3v3.4h-2.6c-6.8,0-9.4,1.6-9.4,6c0,1.6,0.3,3.1,1.3,5.5l18.7,52.8l18.2-52.8
	c1-2.1,1.3-3.9,1.3-4.9c0-4.7-2.9-6.5-10.4-6.5h-2.9v-3.4h45v3.4h-2.3c-7.5,0-11.4,3.1-14.6,11.5l-40.6,114.5h-27.8l-25-66.4
	l-23.9,66.4h-28.6L96,281.3c-3.1-8.3-7.5-11.5-14.8-11.5h-2.1V266.5z"/>
<path class="st0" d="M284.7,392.5c12.8-0.3,17.2-3.4,17.2-12.8v-11.2V87c0-8.8-3.1-13-10.1-13c-1.3,0-2.3,0-4.4,0.8l-0.5-3.4L356,56
	v228.2c7.5-7,10.9-9.6,16.7-12.8c8.1-4.4,15.4-6.5,24.2-6.5c11.7,0,21.6,3.6,28.6,10.4c6.5,6.8,8.6,12.8,8.6,29.1l-0.5,75.2
	c0,9.1,4.7,12.5,16.9,12.8v3.4H368v-3.4c8.1-0.8,10.9-3.9,10.9-12.8l0.3-75.5c0-11.7-2.3-15.6-9.4-15.6c-4.7,0-8.8,2.1-13.8,7v84.1
	c0,8.8,2.9,12,11.2,12.8v3.4h-82.5V392.5z"/>
<path class="st0" d="M489.3,327.7c1.3,13.5,2.3,18.5,6.5,26c5.7,9.6,16.9,15.9,28.4,15.9c6.2,0,12.8-1.6,18.7-4.4
	c10.1-5.2,14.6-10.1,22.1-23.9l3.6,1.3c-3.1,9.6-6.2,18-9.9,25c-9.6,19.5-31.2,30.7-58.3,30.7c-40.3,0-66.6-26.5-66.6-66.9
	c0-40.6,27.1-66.9,69.5-66.9c14.1,0,27.1,3.1,38,9.4c16.9,9.9,23.7,23.9,25.8,53.9H489.3z M489.5,311.5l23.2,0.3l-0.5-13.3
	c-0.3-11.7-4.4-20-10.1-20c-5.5,0-10.1,7.8-11.2,18.7C490.6,301.4,490.1,306.1,489.5,311.5z"/>
<path class="st0" d="M625.1,262.9l0.3,23.4c15.1-15.4,23.2-20.3,33-20.3c11.2,0,20.6,9.6,20.6,21.6c0,11.4-9.1,20.8-20.3,20.8
	c-6.2,0-11.2-2.6-15.9-8.3l-3.6-4.7c-1.3-1.6-3.1-2.6-4.9-2.6c-1.6,0-3.1,1-4.2,1.8c-1.3,1-2.1,2.1-2.6,3.6
	c-2.1,3.9-2.1,5.5-2.1,20.8l-0.3,60.6c0,9.4,3.6,12.5,14.8,12.8v3.4h-84.1v-3.4c11.2-0.3,14.8-3.4,14.8-12.8v-13.8v-72.1
	c0-9.4-2.9-13.3-9.9-13.3c-1.3,0-2.3,0.3-4.2,0.5l-0.8-3.4L625.1,262.9z"/>
<path class="st0" d="M734.4,202.5l0.3,177.5c0,9.1,3.6,12.2,14.3,12.5v3.4h-83.8v-3.4c11.2-0.3,14.8-3.4,14.8-12.8V374V233.5
	c0-8.8-2.9-13-9.9-13c-1.3,0-2.3,0-4.2,0.8l-0.8-3.4L734.4,202.5z"/>
<path class="st0" d="M790.9,327.7c1.3,13.5,2.3,18.5,6.5,26c5.7,9.6,16.9,15.9,28.4,15.9c6.2,0,12.7-1.6,18.7-4.4
	c10.1-5.2,14.6-10.1,22.1-23.9l3.6,1.3c-3.1,9.6-6.2,18-9.9,25c-9.6,19.5-31.2,30.7-58.3,30.7c-40.3,0-66.6-26.5-66.6-66.9
	c0-40.6,27.1-66.9,69.5-66.9c14,0,27.1,3.1,38,9.4c16.9,9.9,23.7,23.9,25.8,53.9H790.9z M791.2,311.5l23.2,0.3l-0.5-13.3
	c-0.3-11.7-4.4-20-10.2-20c-5.5,0-10.1,7.8-11.2,18.7C792.2,301.4,791.7,306.1,791.2,311.5z"/>
<path class="st0" d="M841.5,266.5h86.1v3.4h-2.9c-6.8,0-9.6,1.6-9.6,6.5c0,1,0.3,2.6,1.3,4.9l20.6,59.3l23.9-59.3
	c0.8-2.3,1.3-3.9,1.3-4.9c0-4.9-3.1-6.5-11.2-6.5H948v-3.4h45v3.4h-2.1c-6.8,0-10.7,3.1-14.1,11.5l-49.2,121.8
	c-5.7,14.1-10.9,23.7-16.7,29.7c-6.5,7.3-17.2,11.2-28.9,11.2c-19.3,0-33.3-10.1-33.3-24.2c0-11.2,9.9-20.6,21.6-20.6
	c9.6,0,18,7.5,18,16.4c0,0.5,0,2.1-0.8,4.9v1c0,2.1,1.8,3.4,4.9,3.4c5.5,0,10.7-5.5,13.3-14.8l-47.9-128.8
	c-3.4-8.3-7-11.5-14.3-11.5h-2.1V266.5z"/>
</svg>
