<?xml version="1.0" encoding="utf-8"?>
<!-- Generator: Adobe Illustrator 24.1.0, SVG Export Plug-In . SVG Version: 6.00 Build 0)  -->
<svg version="1.1" id="Layer_1" xmlns:serif="http://www.serif.com/"
	 xmlns="http://www.w3.org/2000/svg" xmlns:xlink="http://www.w3.org/1999/xlink" x="0px" y="0px" viewBox="0 0 1024 1024"
	 style="enable-background:new 0 0 1024 1024;" xml:space="preserve">
<style type="text/css">
	.st0{fill-rule:evenodd;clip-rule:evenodd;}
</style>
<path class="st0" d="M512,0c282.6,0,512,229.4,512,512s-229.4,512-512,512S0,794.6,0,512S229.4,0,512,0z M798.5,411.6
	C795.8,470,755,550,676.1,651.5c-81.6,106-150.6,159-207,159c-35,0-64.6-32.3-88.8-96.8c-16.1-59.2-32.3-118.4-48.4-177.6
	c-18-64.5-37.2-96.8-57.8-96.8c-4.5,0-20.2,9.4-47.1,28.3l-28.2-36.4c29.6-26,58.8-52,87.6-78.1c39.5-34.1,69.2-52.1,88.9-53.9
	c46.7-4.5,75.4,27.4,86.2,95.7c11.7,73.7,19.7,119.5,24.3,137.5c13.5,61.2,28.3,91.7,44.5,91.7c12.5,0,31.4-19.8,56.6-59.5
	c25.1-39.7,38.6-69.8,40.4-90.6c3.6-34.2-9.9-51.4-40.4-51.4c-14.4,0-29.2,3.3-44.4,9.8c29.5-96.6,85.8-143.5,169-140.8
	C773,293.5,802,333.5,798.5,411.6L798.5,411.6z"/>
</svg>
