<?xml version="1.0" encoding="utf-8"?>
<!-- Generator: Adobe Illustrator 24.1.0, SVG Export Plug-In . SVG Version: 6.00 Build 0)  -->
<svg version="1.1" id="Layer_1" xmlns="http://www.w3.org/2000/svg" xmlns:xlink="http://www.w3.org/1999/xlink" x="0px" y="0px"
	 viewBox="0 0 1024 1024" style="enable-background:new 0 0 1024 1024;" xml:space="preserve">
<path d="M512,1.5C229.2,1.5,0,230.7,0,513.5c0,282.8,229.2,512,512,512s512-229.2,512-512C1024,230.7,794.7,1.5,512,1.5z
	 M315.7,672.1c-89,0-161.2-72.1-161.2-161.1c0-89.1,72.1-161.1,161.2-161.1S476.8,421.9,476.8,511
	C476.8,600,404.7,672.1,315.7,672.1z M720,672.1c-89,0-161.1-72.1-161.1-161.1c0-89.1,72.1-161.1,161.1-161.1
	c89,0,161.1,72.1,161.1,161.1C881.1,600,809,672.1,720,672.1z"/>
</svg>
