<?xml version="1.0" encoding="utf-8"?>
<!-- Generator: Adobe Illustrator 24.1.0, SVG Export Plug-In . SVG Version: 6.00 Build 0)  -->
<svg version="1.1" id="Layer_1" xmlns:serif="http://www.serif.com/"
	 xmlns="http://www.w3.org/2000/svg" xmlns:xlink="http://www.w3.org/1999/xlink" x="0px" y="0px" viewBox="0 0 1024 1024"
	 style="enable-background:new 0 0 1024 1024;" xml:space="preserve">
<style type="text/css">
	.st0{fill-rule:evenodd;clip-rule:evenodd;}
</style>
<path class="st0" d="M512,0c282.6,0,512,229.4,512,512s-229.4,512-512,512S0,794.6,0,512S229.4,0,512,0z M512,192
	c-86.9,0-97.8,0.4-131.9,1.9c-34.1,1.6-57.3,7-77.7,14.9c-21,8.2-38.9,19.1-56.7,36.9s-28.7,35.6-36.9,56.7
	c-7.9,20.4-13.3,43.6-14.9,77.7c-1.6,34.1-1.9,45-1.9,131.9s0.4,97.8,1.9,131.9c1.6,34.1,7,57.3,14.9,77.7
	c8.2,21,19.1,38.9,36.9,56.7c17.8,17.8,35.6,28.7,56.7,36.9c20.4,7.9,43.6,13.3,77.7,14.9c34.1,1.6,45,1.9,131.9,1.9
	s97.8-0.4,131.9-1.9c34.1-1.6,57.3-7,77.7-14.9c21-8.2,38.9-19.1,56.7-36.9c17.8-17.8,28.7-35.6,36.9-56.7
	c7.9-20.4,13.3-43.6,14.9-77.7c1.6-34.1,1.9-45,1.9-131.9s-0.4-97.8-1.9-131.9c-1.6-34.1-7-57.3-14.9-77.7
	c-8.2-21-19.1-38.9-36.9-56.7c-17.8-17.8-35.6-28.7-56.7-36.9c-20.4-7.9-43.6-13.3-77.7-14.9C609.8,192.4,598.9,192,512,192z
	 M512,249.7c85.4,0,95.6,0.3,129.3,1.9c31.2,1.4,48.1,6.6,59.4,11c14.9,5.8,25.6,12.7,36.8,23.9c11.2,11.2,18.1,21.9,23.9,36.8
	c4.4,11.3,9.6,28.2,11,59.4c1.5,33.7,1.9,43.9,1.9,129.3s-0.3,95.6-1.9,129.3c-1.4,31.2-6.6,48.1-11,59.4
	c-5.8,14.9-12.7,25.6-23.9,36.8c-11.2,11.2-21.9,18.1-36.8,23.9c-11.3,4.4-28.2,9.6-59.4,11c-33.7,1.5-43.9,1.9-129.3,1.9
	s-95.6-0.3-129.3-1.9c-31.2-1.4-48.1-6.6-59.4-11c-14.9-5.8-25.6-12.7-36.8-23.9c-11.2-11.2-18.1-21.9-23.9-36.8
	c-4.4-11.3-9.6-28.2-11-59.4c-1.5-33.7-1.9-43.9-1.9-129.3s0.3-95.6,1.9-129.3c1.4-31.2,6.6-48.1,11-59.4
	c5.8-14.9,12.7-25.6,23.9-36.8c11.2-11.2,21.9-18.1,36.8-23.9c11.3-4.4,28.2-9.6,59.4-11C416.4,250,426.6,249.7,512,249.7L512,249.7
	z M512,347.7c-90.8,0-164.3,73.6-164.3,164.3S421.2,676.3,512,676.3S676.3,602.8,676.3,512S602.8,347.7,512,347.7L512,347.7z
	 M512,618.7c-58.9,0-106.7-47.8-106.7-106.7S453.1,405.3,512,405.3S618.7,453.1,618.7,512S570.9,618.7,512,618.7z M721.2,341.2
	c0,21.2-17.2,38.4-38.4,38.4c-21.2,0-38.4-17.2-38.4-38.4s17.2-38.4,38.4-38.4C704,302.8,721.2,320,721.2,341.2z"/>
</svg>
