<?xml version="1.0" encoding="utf-8"?>
<!-- Generator: Adobe Illustrator 24.1.0, SVG Export Plug-In . SVG Version: 6.00 Build 0)  -->
<svg version="1.1" id="Layer_1" xmlns:serif="http://www.serif.com/"
	 xmlns="http://www.w3.org/2000/svg" xmlns:xlink="http://www.w3.org/1999/xlink" x="0px" y="0px" viewBox="0 0 1024 1024"
	 style="enable-background:new 0 0 1024 1024;" xml:space="preserve">
<style type="text/css">
	.st0{fill-rule:evenodd;clip-rule:evenodd;}
</style>
<path class="st0" d="M512,0c282.6,0,512,229.4,512,512s-229.4,512-512,512S0,794.6,0,512S229.4,0,512,0z M421.8,784.3
	c226.6,0,350.4-187.7,350.4-350.4c0-5.4,0-10.7-0.3-15.8c24-17.4,45-39.1,61.6-63.9c-22,9.7-45.7,16.3-70.8,19.4
	c25.5-15.3,45-39.3,54.2-68.2c-23.8,14-50.1,24.3-78.2,29.9c-22.5-24-54.4-38.8-89.9-38.8c-67.9,0-123.1,55.2-123.1,123.1
	c0,9.7,1,19.2,3.3,28.1c-102.4-5.1-193.1-54.1-253.9-128.7c-10.5,18.1-16.6,39.3-16.6,61.8c0,42.7,21.7,80.5,54.9,102.4
	c-20.2-0.5-39.1-6.1-55.7-15.3v1.5c0,59.8,42.4,109.3,98.9,120.8c-10.2,2.8-21.2,4.3-32.4,4.3c-7.9,0-15.6-0.8-23.2-2.3
	c15.6,49,61,84.5,114.9,85.6c-42.1,33-95.3,52.6-153,52.6c-10,0-19.7-0.5-29.4-1.8C287.5,763.9,352.3,784.3,421.8,784.3L421.8,784.3
	z"/>
</svg>
