<?xml version="1.0" encoding="utf-8"?>
<!-- Generator: Adobe Illustrator 24.1.0, SVG Export Plug-In . SVG Version: 6.00 Build 0)  -->
<svg version="1.1" id="Layer_1" xmlns:serif="http://www.serif.com/"
	 xmlns="http://www.w3.org/2000/svg" xmlns:xlink="http://www.w3.org/1999/xlink" x="0px" y="0px" viewBox="0 0 1024 1024"
	 style="enable-background:new 0 0 1024 1024;" xml:space="preserve">
<style type="text/css">
	.st0{fill-rule:evenodd;clip-rule:evenodd;fill:#FF0000;}
</style>
<path class="st0" d="M512,0c282.6,0,512,229.4,512,512s-229.4,512-512,512S0,794.6,0,512S229.4,0,512,0z M818.6,358
	c-7.4-27.5-29-49.2-56.6-56.6C712.1,288,512,288,512,288s-200.1,0-250,13.4c-27.5,7.4-49.2,29-56.6,56.6C192,407.9,192,512,192,512
	s0,104.1,13.4,154c7.4,27.5,29.1,49.2,56.6,56.6C311.9,736,512,736,512,736s200.1,0,250-13.4c27.5-7.4,49.2-29,56.6-56.6
	C832,616.1,832,512,832,512S832,407.9,818.6,358L818.6,358z M448,608V416l166.3,96L448,608L448,608z"/>
</svg>
