<?xml version="1.0" encoding="utf-8"?>
<!-- Generator: Adobe Illustrator 24.1.0, SVG Export Plug-In . SVG Version: 6.00 Build 0)  -->
<svg version="1.1" id="Layer_1" xmlns="http://www.w3.org/2000/svg" xmlns:xlink="http://www.w3.org/1999/xlink" x="0px" y="0px"
	 viewBox="0 0 1024 1024" style="enable-background:new 0 0 1024 1024;" xml:space="preserve">
<style type="text/css">
	.st0{fill:#FF0000;}
</style>
<path class="st0" d="M512,1.5C229.2,1.5,0,230.7,0,513.5s229.2,512,512,512s512-229.2,512-512S794.7,1.5,512,1.5z M315.7,672.1
	c-89,0-161.2-72.1-161.2-161.1c0-89.1,72.1-161.1,161.2-161.1s161.1,72,161.1,161.1C476.8,600,404.7,672.1,315.7,672.1z M720,672.1
	c-89,0-161.1-72.1-161.1-161.1c0-89.1,72.1-161.1,161.1-161.1S881.1,422,881.1,511S809,672.1,720,672.1z"/>
</svg>
