<?xml version="1.0" encoding="utf-8"?>
<!-- Generator: Adobe Illustrator 24.1.0, SVG Export Plug-In . SVG Version: 6.00 Build 0)  -->
<svg version="1.1" id="Layer_1" xmlns:serif="http://www.serif.com/"
	 xmlns="http://www.w3.org/2000/svg" xmlns:xlink="http://www.w3.org/1999/xlink" x="0px" y="0px" viewBox="0 0 1024 1024"
	 style="enable-background:new 0 0 1024 1024;" xml:space="preserve">
<style type="text/css">
	.st0{fill-rule:evenodd;clip-rule:evenodd;fill:#FF0000;}
</style>
<path class="st0" d="M512,0c282.6,0,512,229.4,512,512s-229.4,512-512,512S0,794.6,0,512S229.4,0,512,0z M351.9,799.7V399.9H219
	v399.8L351.9,799.7L351.9,799.7z M831.2,799.7V570.5c0-122.8-65.6-180-153-180c-70.5,0-102.1,38.8-119.8,66v-56.6H425.5
	c1.8,37.5,0,399.8,0,399.8h132.9V576.4c0-12,0.9-23.9,4.4-32.4c9.6-23.9,31.5-48.6,68.2-48.6c48.1,0,67.3,36.7,67.3,90.4v213.9
	L831.2,799.7L831.2,799.7z M286.4,207.1c-45.5,0-75.2,29.9-75.2,69.1c0,38.4,28.8,69.1,73.4,69.1h0.9c46.4,0,75.2-30.7,75.2-69.1
	C359.8,237,331.8,207.1,286.4,207.1L286.4,207.1z"/>
</svg>
